<?xml version="1.0" encoding="utf-8"?>
<!-- Generator: Adobe Illustrator 24.1.2, SVG Export Plug-In . SVG Version: 6.00 Build 0)  -->
<svg version="1.1" id="Слой_1" xmlns="http://www.w3.org/2000/svg" xmlns:xlink="http://www.w3.org/1999/xlink" x="0px" y="0px"
	 viewBox="0 0 595.3 841.9" style="enable-background:new 0 0 595.3 841.9;" xml:space="preserve">
<style type="text/css">
	.st0{fill:url(#SVGID_1_);}
	.st1{fill:#1D1D1B;}
</style>
<g>
	
		<linearGradient id="SVGID_1_" gradientUnits="userSpaceOnUse" x1="452.3895" y1="730.0789" x2="136.7796" y2="53.2514" gradientTransform="matrix(1 0 0 -1 0 841.8898)">
		<stop  offset="0" style="stop-color:#A8B79D"/>
		<stop  offset="1" style="stop-color:#FFFFFF;stop-opacity:0"/>
	</linearGradient>
	<path class="st0" d="M526,146.3l-36.7,23.3l-29.5-17.9l-34.9-5.4L407,157.9l-47.4-11.6l-28.6,17l-27.6,6.3l-16.3-23.3l-48.3-11.6
		l-12.5,12.5l-41.1,17.9l-37.6-8.9l-24.5,2.7l-28.2-17L79,158.4v409.7c0.1,13.6,0.1,27.2,0.1,40.8c0,44.2-18.8,83-50.7,114.1
		c-1.4,1.4-7.1,6.1-6.8,9.4c0.6,4.9,6.3,4.8,10.4,4.8h6.4c75.1-0.1,150.3-0.3,225-0.4c53.8,0,107.7-0.1,161.7-0.1h38.1
		c11.5,0,20.7,1.1,31.3-4.5c40.4-21.5,56.9-73.9,57.8-116.8v-457L526,146.3z M431.3,672.1H170.7c-4.8-0.3-8.3-2.2-8.3-4.5
		s3.3-4.3,8.1-4.6c1.6-0.1,3.2,0,4.9,0c41.9,0.1,83.9,0.1,125.7,0.1h127.8c6.8,0,10.6,1.4,10.9,4.2
		C440.1,669.9,436.6,671.9,431.3,672.1z M451.2,628.9c-1.9,0.1-3.9,0.3-5.9,0.3H157.8c-2,0-4.1,0-5.9-0.1c-4.9-0.4-7.5-2-7.7-4.5
		c0-2.5,2.9-3.9,7.5-4.5c1.9-0.3,3.9-0.1,5.9-0.1c48-0.2,96-0.2,144-0.2h144.6c7.7,0,11.7,1.4,12.2,4.2
		C458.7,626.5,456.1,628.3,451.2,628.9z"/>
	<path class="st1" d="M31.5,739.2c-4.3,0-11.1-0.1-11.9-6.6c-0.3-3.6,3.2-7.2,6.6-10.3c0.3-0.3,0.6-0.5,0.8-0.7
		c32.8-32,50.1-70.9,50.1-112.7c0-13.4,0-27.2-0.1-40.8V157.6l17.5-18.3l29,17.5l24.2-2.6L185,163l40.2-17.5l13-13l50.1,12.1
		l15.9,22.8l26-5.9l29.1-17.3l47.4,11.6l17.8-11.6l36,5.5l28.8,17.5l36.5-23.2l28.5,13.1v458.3c-0.5,23.6-5.6,47.4-14.3,67.2
		c-10.3,23.6-25.8,41.3-44.6,51.3c-9.5,5-17.8,4.9-27.4,4.8c-1.6,0-3.2,0-4.8,0h-38.1c-27,0-54,0-81,0.1c-26.9,0-53.8,0-80.7,0
		c-37.2,0-74.5,0.1-111.9,0.2c-37.7,0.1-75.4,0.2-113.1,0.2h-6.6C31.7,739.2,31.6,739.2,31.5,739.2z M81,159.2v408.9
		c0.1,13.6,0.1,27.4,0.1,40.8c0,42.9-17.7,82.8-51.3,115.5c-0.2,0.2-0.5,0.5-0.9,0.8c-3.7,3.4-5.5,5.7-5.3,7c0.3,2.5,2.9,3,8.1,3
		l0,0h6.6c37.7,0,75.4-0.1,113.1-0.2c37.4-0.1,74.7-0.1,111.9-0.2c26.9,0,53.8,0,80.7,0c27,0,54-0.1,81-0.1h38.1c1.7,0,3.3,0,4.9,0
		c9.1,0.1,16.9,0.2,25.5-4.3c40.5-21.6,55.9-73.6,56.7-115.1V159.7L526,148.6l-36.8,23.3L459,153.6l-33.7-5.2l-18,11.7l-47.5-11.6
		l-28.2,16.7l-29.2,6.6l-16.6-23.7l-46.4-11.2l-12,12l-42.1,18.3l-37.9-9l-24.9,2.7l-27.4-16.5L81,159.2z M431.3,674.1H170.5
		c-6.1-0.4-10.2-3-10.2-6.5s4.1-6.2,10-6.6c1.1-0.1,2.3,0,3.4,0c0.5,0,1.1,0,1.7,0c41.9,0.1,84.5,0.1,125.7,0.1h127.8
		c8.1,0,12.5,2,12.9,6c0.2,1.3-0.3,2.6-1.2,3.7C438.9,672.7,435.6,673.9,431.3,674.1L431.3,674.1z M170.8,670.1h260.5
		c3.5-0.1,5.6-1.1,6.3-1.9c0.3-0.3,0.3-0.5,0.3-0.6c-0.1-1.1-2.5-2.4-8.9-2.4H301.1c-41.2,0-83.8,0-125.7-0.1c-0.6,0-1.2,0-1.7,0
		c-1.1,0-2.1,0-3,0c-4.1,0.3-6.2,1.8-6.2,2.6C164.4,668.2,166.4,669.8,170.8,670.1z M445.3,631.2H157.8c-2,0-4.2,0-6-0.1
		c-8-0.6-9.4-4.2-9.6-6.3v-0.2c0-3.5,3.1-5.7,9.2-6.5c1.5-0.2,3-0.2,4.5-0.1c0.6,0,1.1,0,1.7,0c48-0.2,96.8-0.2,144-0.2h144.6
		c5.6,0,13.2,0.6,14.2,5.8v0.1c0.2,1.8-0.2,6.1-8.9,7.1h-0.1c-0.6,0-1.2,0.1-1.8,0.1C448.1,631.1,446.7,631.2,445.3,631.2z
		 M146.2,624.5c0.2,1.3,2.4,2.3,5.9,2.6c1.7,0.1,3.7,0.1,5.7,0.1h287.5c1.3,0,2.6-0.1,3.9-0.2c0.6,0,1.2-0.1,1.8-0.1
		c3.3-0.4,5.5-1.5,5.4-2.6c-0.3-1.2-3.1-2.5-10.2-2.5H301.6c-47.2,0-96,0-144,0.2c-0.6,0-1.2,0-1.8,0c-1.4,0-2.6-0.1-3.8,0.1
		C148.5,622.5,146.3,623.5,146.2,624.5z"/>
</g>
<path d="M451.2,628.9c-1.9,0.1-3.9,0.3-5.9,0.3H157.8c-2,0-4.1,0-5.9-0.1c-4.9-0.4-7.5-2-7.7-4.5c0-2.5,2.9-3.9,7.5-4.5
	c1.9-0.3,3.9-0.1,5.9-0.1c48-0.2,96-0.2,144-0.2h144.6c7.7,0,11.7,1.4,12.2,4.2C458.7,626.5,456.1,628.3,451.2,628.9z"/>
<path d="M431.3,672.1H170.7c-4.8-0.3-8.3-2.2-8.3-4.5s3.3-4.3,8.1-4.6c1.6-0.1,3.2,0,4.9,0c41.9,0.1,83.9,0.1,125.7,0.1h127.8
	c6.8,0,10.6,1.4,10.9,4.2C440.1,669.9,436.6,671.9,431.3,672.1z"/>
</svg>
