<?xml version="1.0" encoding="utf-8"?>
<!-- Generator: Adobe Illustrator 24.1.2, SVG Export Plug-In . SVG Version: 6.00 Build 0)  -->
<svg version="1.1" id="Слой_1" xmlns="http://www.w3.org/2000/svg" xmlns:xlink="http://www.w3.org/1999/xlink" x="0px" y="0px"
	 viewBox="0 0 595.3 841.9" style="enable-background:new 0 0 595.3 841.9;" xml:space="preserve">
<style type="text/css">
	.st0{display:none;fill:none;stroke:#E007CC;stroke-width:3;stroke-miterlimit:10;}
	.st1{fill:url(#SVGID_1_);}
</style>
<path class="st0" d="M424.3,593.9H125.4c-10.4,0-18.9-8.5-18.9-18.9V401.3V270.1c0-10.4,8.5-18.9,18.9-18.9h298.9
	c10.4,0,18.9,8.5,18.9,18.9V575C443.2,585.5,434.7,593.9,424.3,593.9z"/>
<path class="st0" d="M106.5,401.3c0,0,20.1,94.4-28.6,142.5c-5.9,5.9-1.6,16,6.7,16l275.8-0.5c50,0,57.4-15.9,72-41.9
	c11-19.5,20-48.1,22.1-89.9"/>
<path d="M565.9,93.4c-0.1-1.6-0.4-3.9-0.8-6.1c-1.3-5.8-4.5-11.1-9.1-15.1c-8.4-6.9-18-6.1-27.9-6.1h-34.6
	C489.2,40,466.4,19.8,439,19.8s-50.2,20-54.3,46.3h-26.9c-4.1-26.1-26.9-46.3-54.3-46.3s-50.3,20-54.5,46.3h-26.5
	c-4.3-26.1-27-46.3-54.5-46.3c-27.4,0-50.2,20-54.3,46.3H95.1c-9.1,0-17.2,3.2-23,10.6C64.8,86,66.3,98,66.3,109v503.3
	c0,42.1-15.6,77.2-46.9,105.3c-4.8,4.2-8.5,8.7-8.4,15.6c0.1,9,6.4,16.7,15.3,17.2c10.9,0.7,21.7,0.4,32.4,0.4h4.8
	c1.6,0,2.9,1.4,2.9,3c-1.2,15.8,0.4,34.6,17.4,41.1c13,5.1,32,1.9,46.3,1.9h157.2c78.3,0,156.5,0,234.8,0.6c7.1,0,14.3,0.1,21.3-1.4
	c0.7-0.1,1.4-0.3,2.2-0.6c9.4-2.6,20.3-10,20.3-20.7V111.1C565.9,105.2,565.8,99.2,565.9,93.4z M38.4,737.2H32
	c-4.1,0-9.8,0.1-10.4-4.8c-0.3-3.3,5.4-8,6.8-9.4c31.9-31.1,50.7-69.9,50.7-114.1c0-13.6,0-27.2-0.1-40.8V128.8
	c0-9.3-0.4-18.5-0.3-27.8c0-3.6-0.3-7.2,0.1-10.7v-0.9c-0.1-5.9,4.6-10.9,10.6-11l0.5,0.2H113c0,0.8,0.1,1.6,0.2,2.4
	c1.3,11.4,6.1,22,13.3,30.1c0.1,0.1,0.4,0.4,0.6,0.7c10.1,11.1,24.6,18.1,40.8,18.1h2c4.3-1,7.1-4.2,7.4-8.5c0.1-0.9,0-1.7-0.2-2.5
	c-2.9,0.6-6,0.9-9.1,0.9c-23.6,0-42.9-18.1-44.8-41.2c-0.1-1.2-0.2-2.5-0.2-3.8c0-3,0.3-5.9,0.8-8.8c4.1-20.6,22.3-36.2,44.1-36.2
	s40,15.6,44.1,36.2v0.1c0.6,2.8,0.8,5.7,0.8,8.7c0,1.3,0,2.5-0.2,3.8h35.5c0,0.8,0.1,1.6,0.2,2.4c1.3,11.4,6.1,22,13.3,30.1
	c0.1,0.1,0.4,0.4,0.6,0.7c10.1,11.1,24.6,18.1,40.8,18.1h2c2.1-0.5,3.9-1.5,5.2-3c1.3-1.5,2-3.3,2.2-5.5c0.1-0.9,0-1.7-0.2-2.5
	c-2.9,0.6-6,0.9-9.1,0.9c-23.6,0-42.9-18.1-44.8-41.2c-0.1-1.2-0.2-2.5-0.2-3.8c0-3,0.3-5.9,0.8-8.8c4.1-20.6,22.3-36.2,44.1-36.2
	s40,15.6,44.1,36.2v0.1c0.6,2.8,0.9,5.7,0.9,8.7c0,1.3-0.1,2.5-0.2,3.8h36c0,0.8,0.1,1.6,0.2,2.4c1.3,11.4,6.1,22,13.3,30.1
	c0.1,0.1,0.4,0.4,0.6,0.7c10.1,11.1,24.6,18.1,40.8,18.1h2c2.2-0.5,3.9-1.5,5.2-3c1.3-1.5,2-3.3,2.2-5.5c0.1-0.9,0-1.8-0.2-2.6
	c-3.1,0.7-6.3,1-9.6,1c-23.6,0-42.9-18.1-44.8-41.2c-0.1-1.2-0.2-2.5-0.2-3.8c0-3,0.3-5.9,0.8-8.8c4.1-20.6,22.3-36.2,44.1-36.2
	s40.1,15.6,44.1,36.2v0.1c0.6,2.8,0.9,5.7,0.9,8.7c0,1.3,0,2.5-0.2,3.8h11.1c12.4-0.1,24.9-0.5,37.2,0.1c4.8,0.3,9.7,0.9,13.6,3.6
	c5.5,3.8,7.4,11,7.7,17.7c0.3,9.1-0.3,18.4-0.3,27.5v487.9c-0.9,42.9-17.4,95.3-57.8,116.8c-10.6,5.6-19.8,4.5-31.3,4.5h-38.1
	c-54,0-107.9,0.1-161.7,0.1C188.7,736.9,113.5,737.1,38.4,737.2z M552.9,766.5c0,9.1-9.1,16.8-18.1,16.8H99.9
	c-10.6,0-19.4-8.7-19.4-19.3v-9.8c0-1.6,1.3-2.8,2.9-2.8H153c53.9,0,107.7-0.1,161.6-0.1c53.1,0,106.6,1.9,159.8,0.6
	c36.3-0.9,61.2-33.4,77-62.7c0.1-0.3,0.4-0.7,0.7-0.9c0.4-0.1,1.2,0.1,1.3,0.7c0.1,0.3,0.1,0.9,0.1,1.5
	C552.5,715.8,553.1,741,552.9,766.5z"/>
<linearGradient id="SVGID_1_" gradientUnits="userSpaceOnUse" x1="460.0759" y1="797.6474" x2="130.7629" y2="57.9982" gradientTransform="matrix(1 0 0 -1 0 841.8898)">
	<stop  offset="0" style="stop-color:#A8B79D"/>
	<stop  offset="1" style="stop-color:#FFFFFF;stop-opacity:0"/>
</linearGradient>
<path class="st1" d="M431.3,672.1H170.7c-4.8-0.3-8.3-2.2-8.3-4.5s3.3-4.3,8.1-4.6c1.6-0.1,3.2,0,4.9,0c41.9,0.1,83.9,0.1,125.7,0.1
	h127.8c6.8,0,10.6,1.4,10.9,4.2C440.1,669.9,436.6,671.9,431.3,672.1z M451.2,628.9c-1.9,0.1-3.9,0.3-5.9,0.3H157.8
	c-2,0-4.1,0-5.9-0.1c-4.9-0.4-7.5-2-7.7-4.5c0-2.5,2.9-3.9,7.5-4.5c1.9-0.3,3.9-0.1,5.9-0.1c48-0.2,96-0.2,144-0.2h144.6
	c7.7,0,11.7,1.4,12.2,4.2C458.7,626.5,456.1,628.3,451.2,628.9z M552.6,100c-0.3-6.7-2.2-13.9-7.7-17.7c-3.9-2.7-8.8-3.3-13.6-3.6
	c-12.3-0.6-24.8-0.2-37.2-0.1h-10.6v0.1h-89.6c-0.1-0.5-0.1-0.9-0.1-1.3h-0.4c0,0.4,0.1,0.8,0.1,1.3c1.9,23.1,21.2,41.2,44.8,41.2
	c3.3,0,6.5-0.3,9.6-1c0.2,0.8,0.3,1.7,0.2,2.6c-0.2,2.2-0.9,4-2.2,5.5c-1.3,1.5-3,2.5-5.2,3h-2c-16.2,0-30.7-7-40.8-18.1
	c-0.2-0.3-0.5-0.6-0.6-0.7c-7.2-8.1-12-18.7-13.3-30.1c-0.1-0.8-0.2-1.6-0.2-2.4h-35.6v0.1h-89.6c-0.1-0.5-0.1-0.9-0.1-1.3h-0.3
	c0,0.4,0.1,0.8,0.1,1.3c1.9,23.1,21.2,41.2,44.8,41.2c3.1,0,6.2-0.3,9.1-0.9c0.2,0.8,0.3,1.6,0.2,2.5c-0.2,2.2-0.9,4-2.2,5.5
	c-1.3,1.5-3.1,2.5-5.2,3h-2c-16.2,0-30.7-7-40.8-18.1c-0.2-0.3-0.5-0.6-0.6-0.7c-7.2-8.1-12-18.7-13.3-30.1
	c-0.1-0.8-0.2-1.6-0.2-2.4h-35.2v0.1h-89.6c-0.1-0.5-0.1-0.9-0.1-1.3l0,0c0,0.4,0.1,0.8,0.1,1.3c1.9,23.1,21.2,41.2,44.8,41.2
	c3.1,0,6.2-0.3,9.1-0.9c0.2,0.8,0.3,1.6,0.2,2.5c-0.3,4.3-3.1,7.5-7.4,8.5h-2c-16.2,0-30.7-7-40.8-18.1c-0.2-0.3-0.5-0.6-0.6-0.7
	c-7.2-8.1-12-18.7-13.3-30.1c-0.1-0.8-0.2-1.6-0.2-2.4H89.9l-0.5-0.2c-6,0.1-10.7,5.1-10.6,11v0.9c-0.4,3.5-0.1,7.1-0.1,10.7
	c-0.1,9.3,0.3,18.5,0.3,27.8v439.3c0.1,13.6,0.1,27.2,0.1,40.8c0,44.2-18.8,83-50.7,114.1c-1.4,1.4-7.1,6.1-6.8,9.4
	c0.6,4.9,6.3,4.8,10.4,4.8h6.4c75.1-0.1,150.3-0.3,225-0.4c53.8,0,107.7-0.1,161.7-0.1h38.1c11.5,0,20.7,1.1,31.3-4.5
	c40.4-21.5,56.9-73.9,57.8-116.8V127.5C552.3,118.4,552.9,109.1,552.6,100z"/>
<path d="M451.2,628.9c-1.9,0.1-3.9,0.3-5.9,0.3H157.8c-2,0-4.1,0-5.9-0.1c-4.9-0.4-7.5-2-7.7-4.5c0-2.5,2.9-3.9,7.5-4.5
	c1.9-0.3,3.9-0.1,5.9-0.1c48-0.2,96-0.2,144-0.2h144.6c7.7,0,11.7,1.4,12.2,4.2C458.7,626.5,456.1,628.3,451.2,628.9z"/>
<path d="M431.3,672.1H170.7c-4.8-0.3-8.3-2.2-8.3-4.5s3.3-4.3,8.1-4.6c1.6-0.1,3.2,0,4.9,0c41.9,0.1,83.9,0.1,125.7,0.1h127.8
	c6.8,0,10.6,1.4,10.9,4.2C440.1,669.9,436.6,671.9,431.3,672.1z"/>
<path d="M475.2,66.1h-72.3c-0.7,2.8-1,5.7-1,8.7c0,1.3,0.1,2.5,0.2,3.8h74.1c0.1-1.3,0.1-2.5,0.1-3.8
	C476.2,71.8,475.8,68.9,475.2,66.1z M340.3,70.7L340.3,70.7c0-0.5-0.1-0.9-0.2-1.3s-0.1-0.9-0.2-1.3c-0.1-0.3-0.1-0.6-0.2-0.9
	s-0.1-0.7-0.2-1H267c0,0.1-0.1,0.2-0.1,0.3c-0.1,0.3-0.1,0.6-0.2,0.9c0,0,0,0.1,0,0.2c-0.1,0.5-0.2,1.1-0.3,1.7
	c-0.1,0.5-0.1,0.9-0.2,1.4c0,0,0,0,0,0.1c0,0.3-0.1,0.6-0.1,0.8c0,0.4-0.1,0.7-0.1,1.1v2.2c0,1.3,0.1,2.5,0.2,3.8h74.1
	c0.1-1.3,0.1-2.5,0.1-3.8v-3.4C340.4,71.2,340.4,70.9,340.3,70.7z M212.1,66.1h-88.2c-0.6,2.8-0.8,5.8-0.8,8.8c0,1.3,0,2.5,0.2,3.8
	h89.6v-0.1c0.1-1.2,0.2-2.4,0.2-3.7C213,71.9,212.7,68.9,212.1,66.1z M482.7,66.1h-88.2c-0.6,2.8-0.8,5.8-0.8,8.8
	c0,1.3,0,2.5,0.2,3.8h89.6v-0.1c0.1-1.2,0.2-2.4,0.2-3.7C483.6,71.9,483.3,68.9,482.7,66.1z M347.4,66.1h-88.2
	c-0.6,2.8-0.8,5.8-0.8,8.8c0,1.3,0,2.5,0.2,3.8h89.6v-0.1c0.1-1.2,0.2-2.4,0.2-3.7C348.3,71.9,348,68.9,347.4,66.1z"/>
</svg>
