<?xml version="1.0" encoding="utf-8"?>
<!-- Generator: Adobe Illustrator 24.1.2, SVG Export Plug-In . SVG Version: 6.00 Build 0)  -->
<!DOCTYPE svg PUBLIC "-//W3C//DTD SVG 1.1//EN" "http://www.w3.org/Graphics/SVG/1.1/DTD/svg11.dtd" [
	<!ENTITY ns_extend "http://ns.adobe.com/Extensibility/1.0/">
	<!ENTITY ns_ai "http://ns.adobe.com/AdobeIllustrator/10.0/">
	<!ENTITY ns_graphs "http://ns.adobe.com/Graphs/1.0/">
	<!ENTITY ns_vars "http://ns.adobe.com/Variables/1.0/">
	<!ENTITY ns_imrep "http://ns.adobe.com/ImageReplacement/1.0/">
	<!ENTITY ns_sfw "http://ns.adobe.com/SaveForWeb/1.0/">
	<!ENTITY ns_custom "http://ns.adobe.com/GenericCustomNamespace/1.0/">
	<!ENTITY ns_adobe_xpath "http://ns.adobe.com/XPath/1.0/">
]>
<svg version="1.1" id="Слой_1" xmlns:x="&ns_extend;" xmlns:i="&ns_ai;" xmlns:graph="&ns_graphs;"
	 xmlns="http://www.w3.org/2000/svg" xmlns:xlink="http://www.w3.org/1999/xlink" x="0px" y="0px" viewBox="0 0 595.3 841.9"
	 style="enable-background:new 0 0 595.3 841.9;" xml:space="preserve">
<style type="text/css">
	.st0{display:none;fill:none;stroke:#E007CC;stroke-width:3;stroke-miterlimit:10;}
</style>
<metadata>
	<sfw  xmlns="&ns_sfw;">
		<slices></slices>
		<sliceSourceBounds  bottomLeftOrigin="true" height="778" width="554.9" x="11" y="44.1"></sliceSourceBounds>
	</sfw>
</metadata>
<path class="st0" d="M424.3,593.9H125.4c-10.4,0-18.9-8.5-18.9-18.9V401.3V270.1c0-10.4,8.5-18.9,18.9-18.9h298.9
	c10.4,0,18.9,8.5,18.9,18.9V575C443.2,585.5,434.7,593.9,424.3,593.9z"/>
<path class="st0" d="M106.5,401.3c0,0,20.1,94.4-28.6,142.5c-5.9,5.9-1.6,16,6.7,16l275.8-0.5c50,0,57.4-15.9,72-41.9
	c11-19.5,20-48.1,22.1-89.9"/>
<g>
	<path d="M565.9,93.4c-0.1-1.6-0.4-3.9-0.8-6.1c-1.3-5.8-4.5-11.1-9.1-15.1c-8.4-6.9-18-6.1-27.9-6.1h-34.6
		C489.2,40,466.4,19.8,439,19.8c-27.4,0-50.2,20-54.3,46.3h-26.9c-4.1-26.1-26.9-46.3-54.3-46.3c-27.4,0-50.3,20-54.5,46.3h-26.5
		c-4.3-26.1-27-46.3-54.5-46.3c-27.4,0-50.2,20-54.3,46.3H95.1c-9.1,0-17.2,3.2-23,10.6C64.8,86,66.3,98,66.3,109v503.3
		c0,42.1-15.6,77.2-46.9,105.3c-4.8,4.2-8.5,8.7-8.4,15.6c0.1,9,6.4,16.7,15.3,17.2c10.9,0.7,21.7,0.4,32.4,0.4h4.8
		c1.6,0,2.9,1.4,2.9,3c-1.2,15.8,0.4,34.6,17.4,41.1c13,5.1,32,1.9,46.3,1.9h157.2c78.3,0,156.5,0,234.8,0.6
		c7.1,0,14.3,0.1,21.3-1.4c0.7-0.1,1.4-0.3,2.2-0.6c9.4-2.6,20.3-10,20.3-20.7V111.1C565.9,105.2,565.8,99.2,565.9,93.4z
		 M38.4,737.2H32c-4.1,0-9.8,0.1-10.4-4.8c-0.3-3.3,5.4-8,6.8-9.4c31.9-31.1,50.7-69.9,50.7-114.1c0-13.6,0-27.2-0.1-40.8V128.8
		c0-9.3-0.4-18.5-0.3-27.8c0-3.6-0.3-7.2,0.1-10.7v-0.9c-0.1-5.9,4.6-10.9,10.6-11l0.5,0.2H113c0,0.8,0.1,1.6,0.2,2.4
		c1.3,11.4,6.1,22,13.3,30.1c0.1,0.1,0.4,0.4,0.6,0.7c10.1,11.1,24.6,18.1,40.8,18.1h2c4.3-1,7.1-4.2,7.4-8.5c0.1-0.9,0-1.7-0.2-2.5
		c-2.9,0.6-6,0.9-9.1,0.9c-23.6,0-42.9-18.1-44.8-41.2c-0.1-1.2-0.2-2.5-0.2-3.8c0-3,0.3-5.9,0.8-8.8c4.1-20.6,22.3-36.2,44.1-36.2
		s40,15.6,44.1,36.2c0.6,2.8,0.8,5.8,0.8,8.8c0,1.3,0,2.5-0.2,3.8h35.5c0,0.8,0.1,1.6,0.2,2.4c1.3,11.4,6.1,22,13.3,30.1
		c0.1,0.1,0.4,0.4,0.6,0.7c10.1,11.1,24.6,18.1,40.8,18.1h2c2.1-0.5,3.9-1.5,5.2-3c1.3-1.5,2-3.3,2.2-5.5c0.1-0.9,0-1.7-0.2-2.5
		c-2.9,0.6-6,0.9-9.1,0.9c-23.6,0-42.9-18.1-44.8-41.2c-0.1-1.2-0.2-2.5-0.2-3.8c0-3,0.3-5.9,0.8-8.8c4.1-20.6,22.3-36.2,44.1-36.2
		c21.8,0,40,15.6,44.1,36.2c0.6,2.8,0.9,5.8,0.9,8.8c0,1.3-0.1,2.5-0.2,3.8h36c0,0.8,0.1,1.6,0.2,2.4c1.3,11.4,6.1,22,13.3,30.1
		c0.1,0.1,0.4,0.4,0.6,0.7c10.1,11.1,24.6,18.1,40.8,18.1h2c2.2-0.5,3.9-1.5,5.2-3c1.3-1.5,2-3.3,2.2-5.5c0.1-0.9,0-1.8-0.2-2.6
		c-3.1,0.7-6.3,1-9.6,1c-23.6,0-42.9-18.1-44.8-41.2c-0.1-1.2-0.2-2.5-0.2-3.8c0-3,0.3-5.9,0.8-8.8c4.1-20.6,22.3-36.2,44.1-36.2
		c21.8,0,40.1,15.6,44.1,36.2c0.6,2.8,0.9,5.8,0.9,8.8c0,1.3,0,2.5-0.2,3.8h5.3c1.8,0,3.6,0,5.4,0c12.5-0.1,25.2-0.5,37.6,0.1
		c4.8,0.3,9.7,0.9,13.6,3.6c5.5,3.8,7.4,11,7.7,17.7c0.3,9.1-0.3,18.4-0.3,27.5v487.9c-0.9,42.9-17.4,95.3-57.8,116.8
		c-10.6,5.6-19.8,4.5-31.3,4.5h-38.1c-54,0-107.9,0.1-161.7,0.1C188.7,736.9,113.5,737.1,38.4,737.2z M552.9,766.5
		c0,9.1-9.1,16.8-18.1,16.8H99.9c-10.6,0-19.4-8.7-19.4-19.3v-9.8c0-1.6,1.3-2.8,2.9-2.8H153c53.9,0,107.7-0.1,161.6-0.1
		c53.1,0,106.6,1.9,159.8,0.6c36.3-0.9,61.2-33.4,77-62.7c0.1-0.3,0.4-0.7,0.7-0.9c0.4-0.1,1.2,0.1,1.3,0.7c0.1,0.3,0.1,0.9,0.1,1.5
		C552.5,715.8,553.1,741,552.9,766.5z"/>
	<path d="M494.1,78.6L494.1,78.6l-5.4,0C490.5,78.6,492.3,78.6,494.1,78.6z"/>
	<path d="M301.6,619.8c48.2,0,96.4,0,144.6,0c7.7,0,11.7,1.4,12.2,4.2c0.3,2.5-2.3,4.3-7.2,4.9c-1.9,0.1-3.9,0.3-5.9,0.3
		c-95.8,0-191.7,0-287.5,0c-2,0-4.1,0-5.9-0.1c-4.9-0.4-7.5-2-7.7-4.5c0-2.5,2.9-3.9,7.5-4.5c1.9-0.3,3.9-0.1,5.9-0.1
		C205.6,619.8,253.6,619.8,301.6,619.8z"/>
	<path d="M301.1,663.1c42.6,0,85.3,0,127.8,0c6.8,0,10.6,1.4,10.9,4.2c0.3,2.6-3.2,4.6-8.5,4.8c-1.6,0-3.2,0-4.9,0
		c-83.4,0-166.9,0-250.3,0c-1.7,0-3.6,0-5.4,0c-4.8-0.3-8.3-2.2-8.3-4.5s3.3-4.3,8.1-4.6c1.6-0.1,3.2,0,4.9,0
		C217.3,663.1,259.3,663.1,301.1,663.1z"/>
	<path d="M347.4,66.1h-88.2c-0.6,2.8-0.8,5.8-0.8,8.8c0,1.3,0,2.5,0.2,3.8h89.6c0.1-1.2,0.2-2.5,0.2-3.8
		C348.3,71.9,348,68.9,347.4,66.1z M482.7,66.1h-88.2c-0.6,2.8-0.8,5.8-0.8,8.8c0,1.3,0,2.5,0.2,3.8h89.6c0.1-1.2,0.2-2.5,0.2-3.8
		C483.6,71.9,483.3,68.9,482.7,66.1z M212.1,66.1h-88.2c-0.6,2.8-0.8,5.8-0.8,8.8c0,1.3,0,2.5,0.2,3.8h89.6c0.1-1.2,0.2-2.5,0.2-3.8
		C213,71.9,212.7,68.9,212.1,66.1z M340.4,73.7c0-0.4,0-0.7,0-1.1v0c0-0.2,0-0.4,0-0.6c0-0.2,0-0.3,0-0.5c0-0.3,0-0.6-0.1-0.8v0
		c0,0,0,0,0-0.1c0-0.4-0.1-0.8-0.2-1.2c-0.1-0.4-0.1-0.9-0.2-1.3c-0.1-0.3-0.1-0.6-0.2-0.9c-0.1-0.3-0.1-0.7-0.2-1H267
		c0,0.1-0.1,0.2-0.1,0.3c-0.1,0.3-0.1,0.6-0.2,0.9c0,0,0,0.1,0,0.2c-0.1,0.5-0.2,1.1-0.3,1.7c-0.1,0.5-0.1,0.9-0.2,1.4
		c0,0,0,0,0,0.1v0c0,0.3-0.1,0.6-0.1,0.8c0,0.4-0.1,0.7-0.1,1.1v0c0,0.4,0,0.7,0,1.1s0,0.8,0,1.1c0,1.3,0.1,2.5,0.2,3.8h74.1
		c0.1-1.3,0.1-2.5,0.1-3.8C340.4,74.4,340.4,74,340.4,73.7z M475.2,66.1h-72.3c-0.7,2.8-1,5.7-1,8.7c0,1.3,0.1,2.5,0.2,3.8h74.1
		c0.1-1.3,0.1-2.5,0.1-3.8C476.2,71.8,475.8,68.9,475.2,66.1z"/>
</g>
</svg>
