<?xml version="1.0" encoding="utf-8"?>
<!-- Generator: Adobe Illustrator 24.1.2, SVG Export Plug-In . SVG Version: 6.00 Build 0)  -->
<svg version="1.1" id="Слой_1" xmlns="http://www.w3.org/2000/svg" xmlns:xlink="http://www.w3.org/1999/xlink" x="0px" y="0px"
	 viewBox="0 0 1349 942" style="enable-background:new 0 0 1349 942;" xml:space="preserve">
<style type="text/css">
	.st0{fill:url(#SVGID_1_);}
</style>
<linearGradient id="SVGID_1_" gradientUnits="userSpaceOnUse" x1="826.4558" y1="893.3282" x2="530.3542" y2="-17.9787" gradientTransform="matrix(1 0 0 -1 0 939.8898)">
	<stop  offset="0" style="stop-color:#A8B79C"/>
	<stop  offset="1" style="stop-color:#F5F4F2"/>
</linearGradient>
<path class="st0" d="M1278.4,207.9v588.6c0,11-8.9,20-19.9,20h-200.6c-2.4-1.8-6-2.5-11.3-2.6c-11.3-0.2-655.5-0.1-666.8-0.1
	c-25.2,0-50.5-0.1-75.7,0.1c-5.8,0-9.6,0.7-12.1,2.6H98.4c-11,0-20-8.9-20-20V207.9c0-11,8.9-19.9,19.9-19.9h1160.1
	C1269.4,187.9,1278.4,196.9,1278.4,207.9z"/>
<g>
	<path d="M1162.4,129.9c-3.6-1.2-7.5-1.4-11.3-1.4c-37.2-0.1-707.5-0.1-744.7-0.1c-19.6,0-18.3,0.7-18.3-17.9c0-0.7,0-1.3-0.1-2
		c-1.2-16-11.3-26.7-27.4-27.2c-18.3-0.6-36.6-0.6-54.8,0c-15.7,0.6-25.8,11.2-27,26.8c-0.3,3.2-0.2,6.3-0.2,9.5
		c-0.1,9.7-1.1,10.7-11.1,10.8c-2.9,0-5.9,0-8.8,0c-22.8-0.1-20.6,1.9-20.9-20c-0.2-15.4-9.4-26.2-24.6-26.9
		c-19.1-0.8-38.4-0.9-57.5,0c-16,0.7-25.3,11.5-26,27.5c-0.1,3.6-0.2,7.2-0.1,10.8c0.2,6-2.6,8.7-8.6,8.6
		c-8.6-0.1-17.2-0.1-25.7,0.1c-37.7,0.9-68.9,23.8-79.3,58.6c-2.2,7.3-2.9,15-4.3,22.5v592c0.5,2.4,0.8,4.9,1.4,7.3
		c2.5,9.5,4.6,19.3,8,28.5c2.8,7.7,8.8,10.1,14.2,7.5c5.3-2.5,5.7-7.4,3.1-15.2c-2.8-8.2-10.1-16.9-10.2-25.3
		c-0.5-87.6-0.4-509.8-0.2-597.4c0-19.2,9.7-36.7,24.9-48.4c13.3-10.3,31.9-15.2,48.3-15.2c138.6,0,910.1,0,1048.7,0
		c3.4,0,7.1,0.8,10.1-0.4c3.3-1.4,7.2-0.1,8.4-3.1C1170.2,135.2,1166.8,131.3,1162.4,129.9z M202.4,128.4h-18.9v-0.1
		c-9,0-18,0-27.1,0c-5.3,0-7.6-2.5-7.9-7.8c-1.1-18,1.2-26.7,19-26.7c13.3,0,26.6-0.1,39.9,0.1c9.4,0.1,14.4,8.3,14.6,17.7
		C222.4,128.4,219.4,128.4,202.4,128.4z M353.8,128.4h-21v-0.1c-9,0-18-0.1-27,0c-5.6,0.1-13.4-2.4-13.3-8.1c0-0.4,1-0.9,1-1.3
		C293,102,299,92.9,316,92.9c13.5,0,27-0.1,40.5,0.1c9.6,0.1,17.3,10,17.7,19.7C374.8,128,369.4,128.4,353.8,128.4z"/>
	<path d="M1337.9,229.2c0-9.9-0.2-19.9-1.6-29.7c-4.7-31.4-22.1-53.4-51.6-65c-24.3-9.6-49.9-5.6-75.1-5.4c-1.3,0-3.1,0.4-3.8,1.3
		c-2,2.7-5.1,5.9-4.9,8.6c0.2,2.7,3.6,1.8,6.3,3.5c2,1.3,5.3,0.8,7.9,0.8c12.4,0.1,29.8,0,42.2,0.1c41,0.2,66.1,35.4,65.7,70.4
		c-1.1,84.4-0.5,503.5-0.3,587.9c0,13.7-4,25.8-11.9,36.7c-13.3,18.3-37.2,25.5-59.1,25.6c-50.1,0.1-100.2,0.1-150.3,0
		c-22.4,0-20.9,1.8-20.9-20.8c0-11,0.8-11.8,12.1-11.8c49.2,0,98.4,0,147.6,0c3.4,0,6.8,0.1,10.1-0.3c20.4-1.9,34.5-16.2,34.6-35.7
		c0.1-81.7,0.1-498.1,0-579.8c0-16.7-10.6-30-26.9-33.8c-6.1-1.4-12.5-1.9-18.8-1.9c-82.6-0.1-798.2-0.1-880.8-0.1
		c-82.8,0-165.6,0-248.4,0.1c-6.3,0-12.7,0.5-18.8,1.9c-16.2,3.7-26.9,17.1-26.9,33.7c-0.1,81.7-0.1,498.1,0,579.8
		c0,16.5,9.4,29,25.3,33.6c5.5,1.6,11.5,2.2,17.3,2.3c47.4,0.2,94.8,0.1,142.2,0.1c21.1,0,19.7-1.9,19.6,19.8
		c0,11.8-0.9,12.7-12.7,12.8c-42.6,0-85.3,0.1-127.9,0c-19.6-0.1-39.3,1.8-58.5-4.4c-4.9-1.6-9,0.9-10.8,5.8
		c-1.8,4.8,0.5,8.7,4.7,10.7c4.8,2.3,10.1,4.1,15.3,5c12.5,2.3,12.5,2.1,12.6,15.1v2.7c0.1,20.3,12.1,33.2,32.5,33.9
		c14.4,0.5,28.9,0.5,43.3,0c17.4-0.6,29.5-11.9,31.9-29.2c0.5-3.8,0.7-7.7,0.5-11.5c-0.3-6.7,2.8-9.3,9.3-9.2
		c18.1,0.2,36.1-0.2,54.2,0.3c4,0.1,8.8,2.3,11.6,5.2c7.1,7.3,15.1,10.9,25.2,10.9c38.8-0.1,710.6-0.1,749.4,0
		c10.1,0,18.2-3.5,25.3-10.8c2.8-2.9,7.6-5.1,11.6-5.2c15.3-0.6,30.7-0.3,46-0.3c17.2,0,17.3-1.2,17.7,16.6
		c0.5,19,12.8,32.3,30.8,33.2c15.3,0.8,30.7,0.7,46,0c14.3-0.7,25.2-7.5,29.6-21.7c1.7-5.5,1.4-11.6,1.6-17.4
		c0.3-9.7,0.9-10.5,10.5-12.2c31.1-5.6,52.8-23.2,63.3-52.7c4.3-12.2,5.7-26.1,5.8-39.2C1338.2,714.2,1338,304.4,1337.9,229.2z
		 M160.2,914.1c-5.2,0-10.3,0-15.5,0v-0.2c-6.8,0-13.5,0.3-20.2-0.1c-9.3-0.6-13.3-5-13.8-14.1c-1-16.2-0.3-16.9,15.6-16.9
		c15.1,0,30.1-0.1,45.2,0c8.1,0.1,9.4,1.5,9.6,9.5C181.4,908.8,176.5,913.9,160.2,914.1z M104.3,816.3
		c-15.2-0.1-25.9-10.6-25.9-25.9c0-78.1,0-490.9,0-569c0-16.3,10.8-28.4,27.4-28.5c30.2-0.2,60.5-0.1,90.7-0.1h162.5
		c81.2,0,795.5,0.2,876.7-0.1c30.7-0.1,36.8,14.3,36.7,36.8c-0.4,74.9-0.1,484.6-0.2,559.5c0,17.3-11.7,26.3-28.9,26.4
		c-52.1,0.2-104.3,0-156.4,0.1c-5.1,0-8.9-4.5-12.2-8.8c-6.2-8.2-15.1-11.5-24.9-11.6c-39-0.2-711.1-0.2-750.1,0
		c-10.4,0-19.1,4.2-26,12.4c-2.1,2.5-6.4,8.7-9.7,8.7c-29.7,0.2-59.5,0.2-89.2,0.2C151.4,816.5,127.9,816.4,104.3,816.3z
		 M1061.8,867.8c-0.2,9.2-3.1,12.3-12.3,12.3c-19.6,0.2-672.2,0.1-691.8,0.1v0c-18.7,0-37.4,0.1-56.1,0
		c-10.8-0.1-13.5-2.9-13.6-13.8c-0.1-12.2-0.1-24.3,0-36.5c0-7,1-11.1,4-13.4c2.5-1.9,6.3-2.6,12.1-2.6c25.2-0.2,50.5-0.1,75.7-0.1
		c11.3,0,655.5-0.1,666.8,0.1c5.3,0.1,8.9,0.8,11.3,2.6c3,2.2,4.1,6.2,4.1,12.8C1062,842.1,1062,855,1061.8,867.8z M1239.3,898.6
		c-0.4,10.3-4.5,15-14.8,15.3c-13.3,0.4-26.5,0.5-39.8,0c-12.8-0.5-21.3-16.4-14.8-27.6c1.1-1.9,4.8-3.1,7.4-3.2
		c9-0.4,18-0.2,27-0.2v0c7.9,0,15.7,0,23.6,0c10.5,0.1,11.4,1,11.4,11.7C1239.3,895.9,1239.3,897.3,1239.3,898.6z"/>
</g>
<g>
	<path d="M619.9,856.8c-6.5,0-13,0.3-19.5-0.1c-7.1-0.5-11.2-4.4-10.8-9.6c0.3-5.2,4.6-8.7,11.6-8.8c12.6-0.2,25.2-0.2,37.7,0
		c7,0.1,11.3,3.7,11.5,8.9c0.3,5.2-3.8,9.1-10.9,9.5C632.9,857.2,626.4,856.8,619.9,856.8z"/>
	<path d="M626.5,326.5h-4.7c-3.8,0-7-3.1-7-7v-49.1c0-3.8,3.1-7,7-7h4.7c3.8,0,7,3.1,7,7v49.1C633.5,323.4,630.4,326.5,626.5,326.5z
		"/>
	<path d="M626.5,454.7h-4.7c-3.8,0-7-3.1-7-7v-49.1c0-3.8,3.1-7,7-7h4.7c3.8,0,7,3.1,7,7v49.1C633.5,451.6,630.4,454.7,626.5,454.7z
		"/>
</g>
</svg>
